# xmcd
#
# Track frame offsets:
#	150
#	10586
#	20351
#	30246
#	47569
#	62122
#	79343
#	84813
#	99438
#	106705
#	118654
#	129975
#	140087
#	149395
#	155856
#	173174
#	184221
#	200594
#	209791
#	219664
#	232903
#	244398
#
# Disc length: 3476 seconds
#
# Revision: 0
# Processed by: cddbd v1.4PL0 Copyright (c) Steve Scherf et al.
# Submitted via: dBpowerAMP V4.0
#
DISCID=320d9216
DTITLE=Various Artist - Songs from the Heart
DYEAR=2001
DGENRE=Country
TTITLE0=Woody Guthrie - This Land Is Your Land
TTITLE1=Dock Hoggs - Down South
TTITLE2=Elizabeth Cotten - Freight Train
TTITLE3=Mike Seeger - Darlin' Cora
TTITLE4=Dave Van Ronk - Twelve Gates To The City
TTITLE5=Roscoe Holcomb - House Of The Rising Sun
TTITLE6=Leadbelly - Linin' Track
TTITLE7=Josh White - In My Time Of Dying
TTITLE8=Bascom Lamar Lunsford - The Death Of Queen Jane
TTITLE9=Cisco Houston - What Did The Deep Blue Sea Say?
TTITLE10=Lucinda Williams - Malted Milk Blues
TTITLE11=Phil Ochs - Ballad Of Alfred Packer
TTITLE12=Cisco Houston - The Intoxicated Rat
TTITLE13=Leadbelly - There's A Man Goin' Around Taking Names
TTITLE14=Dock Boggs - Country Blues
TTITLE15=Roscoe Holcomb - Little Birdie
TTITLE16=Bascom Lamar Lunsford - Sawanahana Tunnel
TTITLE17=Mike Seeger - Wabash Blues
TTITLE18=Phil Ochs - Spaceman
TTITLE19=Dave Van Bonk - Please See That My Grave Is Kept Clean
TTITLE20=Woody Guthrie - Hard Travellin'
TTITLE21=Bernice Johnson Reagon - There's A New World Coming
EXTD=
EXTT0=
EXTT1=
EXTT2=
EXTT3=
EXTT4=
EXTT5=
EXTT6=
EXTT7=
EXTT8=
EXTT9=
EXTT10=
EXTT11=
EXTT12=
EXTT13=
EXTT14=
EXTT15=
EXTT16=
EXTT17=
EXTT18=
EXTT19=
EXTT20=
EXTT21=
PLAYORDER=
